<svg width="270" height="227" viewBox="0 0 270 227" fill="none" xmlns="http://www.w3.org/2000/svg">
<path d="M0.999993 153.777C2.49444 150.985 6.08111 144.147 8.47222 139.123C11.4611 132.842 14.45 132.842 14.45 146.45C14.45 157.336 18.4352 204.019 20.4278 226L27.9 137.029C28.3982 142.612 30.59 153.777 35.3722 153.777C41.35 153.777 42.8444 144.356 47.3278 144.356C50.9144 144.356 53.8037 159.708 54.8 167.384L63.7667 6.19013C64.739 -0.539345 69.0602 -0.918188 69.7445 6.19013C70.3928 12.926 73.2315 107.372 74.2278 153.777C76.2204 147.496 81.1022 134.936 84.6889 134.936C88.2756 134.936 91.1648 152.381 92.1611 161.104C93.1574 152.381 96.0467 134.936 99.6333 134.936C103.22 134.936 107.106 159.359 108.6 171.571L119.061 95.1608L129.522 153.777C130.519 147.496 133.408 134.936 136.994 134.936C140.581 134.936 143.47 147.496 144.467 153.777L154.928 57.4791L163.894 153.777C165.389 151.334 169.573 146.45 174.356 146.45C179.138 146.45 178.173 162.736 179.253 180.162C180.747 192.212 183.621 187.69 184.817 176.804C186.012 165.919 189.3 144.356 190.794 134.936L198.699 194.178C200.319 199.482 201.554 199.623 202.75 194.599C203.946 189.574 207.233 152.73 208.728 134.936C209.724 141.216 212.613 153.777 216.2 153.777C219.787 153.777 224.669 109.117 226.661 86.7871L235.628 162.15C236.126 153.777 238.318 137.029 243.1 137.029C247.882 137.029 252.067 148.892 253.561 154.824C254.557 148.194 257.447 134.936 261.033 134.936C264.62 134.936 268.506 134.936 270 134.936" stroke="#333C63" stroke-width="2"/>
</svg>
